<?xml version="1.0" standalone="no"?>
<!DOCTYPE svg PUBLIC "-//W3C//DTD SVG 20010904//EN"
 "http://www.w3.org/TR/2001/REC-SVG-20010904/DTD/svg10.dtd">
<svg version="1.0" xmlns="http://www.w3.org/2000/svg"
 width="630.000000pt" height="92.000000pt" viewBox="0 0 630.000000 92.000000"
 preserveAspectRatio="xMidYMid meet">
<metadata>
Created by potrace 1.16, written by Peter Selinger 2001-2019
</metadata>
<g transform="translate(0.000000,92.000000) scale(0.100000,-0.100000)"
fill="#000000" stroke="none">
<path d="M252 909 c-99 -19 -183 -85 -226 -178 -17 -37 -21 -65 -21 -146 0
-124 22 -181 99 -253 82 -78 118 -87 341 -87 l190 0 0 75 0 75 -180 5 c-189 5
-201 8 -247 57 -52 55 -63 136 -27 209 37 78 66 88 274 94 l180 5 3 69 c2 49
-1 72 -10 77 -17 11 -320 9 -376 -2z"/>
<path d="M914 910 c-100 -21 -176 -78 -222 -164 -25 -46 -27 -61 -27 -161 0
-101 2 -114 27 -162 37 -70 89 -120 157 -152 51 -24 67 -26 186 -26 127 0 132
1 197 33 120 59 180 160 181 302 1 90 -13 141 -53 202 -34 51 -89 93 -152 115
-50 18 -235 26 -294 13z m221 -161 c79 -22 135 -115 120 -198 -9 -49 -48 -107
-87 -128 -26 -14 -56 -18 -133 -18 -86 0 -105 3 -135 22 -125 77 -100 281 39
323 39 12 151 11 196 -1z"/>
<path d="M1445 908 c-3 -7 -4 -159 -3 -338 l3 -325 54 -3 c30 -2 65 -1 78 3
l23 5 0 256 0 255 149 -3 c130 -3 152 -5 170 -22 23 -21 29 -83 11 -116 -14
-27 -71 -40 -168 -40 l-83 0 3 -82 3 -83 65 -3 65 -2 81 -86 80 -85 90 3 c85
3 89 4 92 27 3 18 -13 41 -73 101 l-78 78 36 36 c74 74 86 217 28 320 -22 41
-40 57 -86 81 l-59 30 -238 3 c-192 3 -239 1 -243 -10z"/>
<path d="M2195 907 c-3 -7 -4 -158 -3 -337 l3 -325 54 -3 c30 -2 65 -1 78 3
l23 5 0 255 0 255 133 0 c86 0 141 -5 157 -13 56 -28 63 -112 12 -145 -20 -13
-54 -18 -154 -21 l-128 -3 0 -79 0 -79 153 0 c144 0 156 2 204 25 87 44 129
129 121 245 -9 121 -75 199 -187 220 -82 15 -460 13 -466 -3z"/>
<path d="M3124 910 c-102 -21 -185 -87 -228 -179 -30 -66 -30 -226 1 -293 30
-66 96 -133 162 -165 52 -26 65 -28 181 -28 151 0 207 16 278 80 93 83 133
230 98 358 -25 91 -76 154 -158 196 -62 31 -74 34 -180 37 -62 2 -132 -1 -154
-6z m257 -176 c121 -71 115 -248 -11 -311 -33 -18 -61 -23 -115 -23 -92 0
-134 13 -172 52 -73 76 -71 190 4 261 41 39 74 47 174 44 64 -2 94 -8 120 -23z"/>
<path d="M3655 907 c-3 -7 -4 -158 -3 -337 l3 -325 75 0 75 0 3 258 2 258 151
-3 151 -3 25 -29 c20 -24 24 -36 19 -65 -10 -63 -31 -74 -156 -79 l-110 -5 0
-77 c0 -89 1 -90 85 -90 53 0 55 -1 107 -57 114 -123 97 -113 190 -113 80 0
108 9 108 33 0 5 -37 47 -82 93 l-81 84 27 21 c51 40 71 94 71 194 0 81 -3 95
-28 138 -35 58 -86 93 -156 107 -81 15 -470 13 -476 -3z"/>
<path d="M4790 907 c-26 -13 -390 -609 -390 -639 0 -22 30 -30 105 -26 l60 3
129 217 130 217 38 -62 c20 -34 37 -65 38 -69 0 -5 -28 -8 -63 -8 -36 0 -70
-5 -79 -12 -26 -22 -60 -87 -56 -110 3 -23 6 -23 149 -26 l145 -3 38 -63 c20
-36 43 -69 51 -76 8 -6 42 -10 87 -8 68 3 73 5 76 26 4 29 -335 600 -374 631
-31 24 -49 26 -84 8z"/>
<path d="M5051 906 c-7 -9 -11 -39 -9 -78 l3 -63 118 -3 117 -3 0 -39 0 -40
80 0 80 0 0 40 0 40 115 0 116 0 -3 78 -3 77 -301 3 c-251 2 -303 0 -313 -12z"/>
<path d="M5702 908 c-8 -8 -12 -49 -12 -120 l0 -108 85 0 85 0 0 40 0 40 220
0 221 0 -3 78 -3 77 -290 3 c-218 2 -294 -1 -303 -10z"/>
<path d="M5280 580 c0 -56 3 -70 15 -70 12 0 15 13 15 55 0 57 10 66 54 49 28
-11 18 -34 -14 -34 -20 0 -30 -5 -30 -15 0 -8 6 -15 13 -15 8 0 22 -9 32 -20
15 -17 31 -20 102 -20 67 0 83 3 83 15 0 11 -12 15 -45 15 -33 0 -45 4 -45 15
0 11 11 15 40 15 29 0 40 4 40 15 0 11 -11 15 -40 15 -22 0 -40 5 -40 10 0 6
22 10 49 10 50 0 50 0 81 -55 17 -30 37 -55 43 -55 12 0 87 113 87 131 0 25
-33 4 -58 -37 l-29 -45 -24 45 -24 46 -82 0 c-79 0 -83 -1 -83 -22 l0 -22 -16
22 c-12 18 -25 22 -70 22 l-54 0 0 -70z"/>
<path d="M5780 580 l0 -70 65 0 c51 0 65 3 65 15 0 11 -12 15 -50 15 -38 0
-50 4 -50 15 0 11 12 15 45 15 33 0 45 4 45 15 0 11 -12 15 -45 15 -25 0 -45
5 -45 10 0 6 24 10 53 10 l53 0 27 -55 c27 -56 49 -68 66 -37 9 16 10 16 16 0
13 -32 33 -19 69 46 42 74 42 76 17 76 -11 0 -23 -12 -31 -30 -21 -52 -35 -54
-55 -10 -12 27 -24 40 -38 40 -15 0 -18 -4 -12 -22 18 -61 14 -70 -10 -25
l-25 47 -80 0 -80 0 0 -70z"/>
<path d="M5282 363 l3 -118 75 0 75 0 3 118 3 117 -81 0 -81 0 3 -117z"/>
<path d="M5690 371 c0 -80 4 -112 14 -120 9 -8 97 -11 302 -9 l289 3 3 78 3
77 -221 0 -220 0 0 40 0 40 -85 0 -85 0 0 -109z"/>
<path d="M4425 165 c-14 -13 -25 -36 -25 -50 0 -32 41 -75 73 -75 13 0 32 6
43 14 17 13 21 12 37 -2 13 -12 24 -13 45 -6 23 8 27 15 27 49 0 40 0 40 -39
40 -28 0 -42 -5 -50 -20 -27 -49 -71 -59 -86 -20 -18 47 11 83 47 60 29 -19
33 -19 33 4 0 38 -69 42 -105 6z"/>
<path d="M5558 126 c4 -62 3 -64 -17 -59 -25 6 -30 53 -6 53 8 0 15 5 15 10 0
6 -7 10 -15 10 -8 0 -15 5 -15 10 0 14 -12 12 -35 -6 -14 -11 -16 -18 -7 -21
6 -3 12 -20 12 -38 0 -39 3 -41 103 -44 l78 -2 -6 25 c-3 14 -7 37 -10 51 -4
19 -12 25 -30 25 -20 0 -25 5 -25 25 0 19 -5 25 -23 25 -22 0 -23 -3 -19 -64z"/>
<path d="M5850 180 c0 -5 5 -10 10 -10 24 0 8 -29 -17 -32 -24 -2 -29 -8 -31
-36 -6 -56 25 -71 103 -51 6 1 22 -1 37 -5 37 -11 68 8 68 42 0 35 -16 52 -50
52 -32 0 -50 -17 -50 -47 0 -13 -5 -23 -11 -23 -8 0 -10 20 -7 60 l4 60 -28 0
c-15 0 -28 -4 -28 -10z"/>
<path d="M5085 148 c-11 -7 -33 -11 -48 -9 -16 1 -37 -5 -47 -14 -16 -14 -18
-14 -23 0 -9 23 -64 19 -77 -5 -22 -41 17 -89 60 -75 27 9 26 35 0 28 -11 -3
-20 0 -20 6 0 6 11 11 25 11 15 0 25 -6 25 -15 0 -23 39 -39 66 -26 32 14 31
33 -1 25 -22 -5 -25 -3 -25 21 0 23 2 26 15 15 12 -10 18 -10 30 0 13 11 15 8
15 -18 0 -16 6 -34 13 -40 6 -5 62 -11 124 -11 l112 -2 -5 38 c-9 62 -10 63
-63 63 l-49 0 5 -40 c4 -26 2 -40 -6 -40 -6 0 -11 17 -11 40 0 41 0 41 -37 38
-22 -1 -38 3 -41 10 -5 15 -11 15 -37 0z"/>
<path d="M4644 90 l1 -50 117 0 117 0 -5 38 c-9 61 -10 62 -64 62 -54 0 -55
-1 -40 -30 12 -22 3 -53 -14 -47 -6 2 -13 19 -16 38 -5 32 -7 34 -51 37 l-45
3 0 -51z"/>
</g>
</svg>
