<?xml version="1.0" encoding="UTF-8"?>
<!DOCTYPE svg PUBLIC "-//W3C//DTD SVG 1.1//EN" "http://www.w3.org/Graphics/SVG/1.1/DTD/svg11.dtd">
<!-- Creator: CorelDRAW X7 -->
<svg xmlns="http://www.w3.org/2000/svg" xml:space="preserve" width="223.651mm" height="103.935mm" version="1.1" style="shape-rendering:geometricPrecision; text-rendering:geometricPrecision; image-rendering:optimizeQuality; fill-rule:evenodd; clip-rule:evenodd"
viewBox="0 0 578 269"
 xmlns:xlink="http://www.w3.org/1999/xlink">
 <defs>
  <style type="text/css">
   <![CDATA[
    .fil1 {fill:#EEB542}
    .fil0 {fill:#521254}
    .fil2 {fill:#EEB542;fill-rule:nonzero}
   ]]>
  </style>
 </defs>
 <g id="Layer_x0020_1">
  <metadata id="CorelCorpID_0Corel-Layer"/>
  <g id="_1473376866080">
   <path class="fil0" d="M214 170l22 -61 -9 0 -10 30c-3,8 -6,16 -7,23l0 0c-2,-7 -5,-15 -7,-23l-10 -30 -8 0 20 61 9 0zm28 -61l0 61 8 0 0 -61 -8 0zm18 34l0 5 23 0 0 -5 -23 0zm29 24c4,2 10,4 16,4 15,0 22,-9 22,-18 0,-9 -5,-14 -16,-18 -8,-3 -12,-6 -12,-11 0,-4 3,-9 12,-9 5,0 9,1 11,3l2 -7c-2,-1 -7,-3 -13,-3 -12,0 -20,7 -20,17 0,8 6,13 16,17 8,3 12,6 12,12 0,6 -5,10 -13,10 -6,0 -11,-2 -14,-4l-3 7zm90 -6c-3,2 -8,3 -13,3 -15,0 -23,-9 -23,-24 0,-16 9,-25 24,-25 5,0 9,1 12,2l2 -6c-2,-1 -7,-3 -14,-3 -20,0 -33,13 -33,32 0,20 13,31 31,31 7,0 13,-2 16,-3l-2 -7zm44 -10l7 19 9 0 -22 -61 -9 0 -21 61 8 0 7 -19 21 0zm-20 -6l6 -18c2,-4 2,-7 3,-11l1 0c0,4 1,7 3,11l6 18 -19 0zm52 25l0 -26c0,-10 0,-17 0,-25l0 0c3,6 7,13 11,20l20 31 8 0 0 -61 -7 0 0 26c0,9 0,16 1,24l-1 0c-3,-6 -6,-12 -11,-19l-19 -31 -9 0 0 61 7 0z"/>
   <path class="fil1" d="M203 212c2,0 5,0 8,0 7,0 12,-1 15,-4 4,-3 6,-8 6,-13 0,-6 -2,-10 -6,-13 -3,-2 -7,-4 -13,-4 -4,0 -7,1 -10,1l0 33zm6 -28c1,-1 2,-1 4,-1 8,0 12,4 12,12 0,8 -5,13 -13,12 -1,0 -2,0 -3,0l0 -23zm28 -5l0 33 6 0 0 -33 -6 0zm30 24l3 9 7 0 -11 -33 -8 0 -10 33 6 0 3 -9 10 0zm-9 -5l2 -8c1,-2 1,-5 2,-6l0 0c1,1 1,4 2,6l2 8 -8 0zm50 -4l-12 0 0 4 6 0 0 9c-1,0 -3,0 -5,0 -7,0 -12,-4 -12,-12 0,-7 5,-12 13,-12 3,0 5,1 7,2l2 -5c-2,-1 -5,-2 -9,-2 -11,0 -19,7 -19,18 0,5 2,9 5,12 3,3 7,4 13,4 4,0 8,-1 11,-2l0 -16zm12 18l0 -12c0,-5 -1,-10 -1,-14l0 0c2,4 4,8 6,11l9 15 6 0 0 -33 -5 0 0 11c0,5 0,10 0,14l0 0c-1,-4 -3,-7 -5,-11l-9 -14 -7 0 0 33 6 0zm42 -34c-10,0 -16,7 -16,18 0,9 6,16 15,16 10,0 16,-6 16,-17 0,-10 -5,-17 -15,-17zm0 5c6,0 9,6 9,12 0,7 -3,13 -9,13 -6,0 -10,-6 -10,-13 0,-6 4,-12 10,-12zm19 27c2,1 6,2 9,2 9,0 13,-4 13,-10 0,-4 -3,-7 -9,-9 -4,-2 -6,-3 -6,-6 0,-2 2,-4 5,-4 4,0 6,1 7,2l2 -5c-2,-1 -5,-2 -8,-2 -8,0 -12,4 -12,10 0,5 3,7 9,9 4,2 6,3 6,6 0,3 -2,4 -6,4 -3,0 -7,-1 -8,-2l-2 5zm34 2l6 0 0 -28 10 0 0 -5 -26 0 0 5 10 0 0 28zm20 -33l0 33 6 0 0 -33 -6 0zm36 27c-2,1 -4,1 -7,1 -7,0 -12,-4 -12,-12 0,-8 5,-12 12,-12 3,0 5,1 7,1l1 -4c-1,-1 -4,-2 -8,-2 -10,0 -18,7 -18,18 0,10 6,16 17,16 4,0 7,0 9,-1l-1 -5zm5 4c1,1 5,2 9,2 8,0 12,-4 12,-10 0,-4 -2,-7 -8,-9 -5,-2 -7,-3 -7,-6 0,-2 2,-4 6,-4 3,0 5,1 7,2l1 -5c-2,-1 -4,-2 -8,-2 -7,0 -12,4 -12,10 0,5 4,7 9,9 4,2 6,3 6,6 0,3 -2,4 -6,4 -3,0 -6,-1 -8,-2l-1 5z"/>
   <path class="fil0" d="M80 254l0 8 -5 0 0 -22 9 0c1,0 2,0 3,1 1,0 2,0 2,1 1,1 2,2 2,2 0,1 1,2 1,3 0,1 -1,2 -1,3 0,1 -1,2 -2,2 0,1 -1,1 -2,2 -1,0 -2,0 -3,0l-4 0zm0 -3l4 0c0,0 1,0 1,-1 1,0 1,0 1,0 1,-1 1,-1 1,-1 0,-1 0,-1 0,-2 0,0 0,-1 0,-1 0,0 0,-1 -1,-1 0,-1 0,-1 -1,-1 0,0 -1,0 -1,0l-4 0 0 7zm13 3c0,-1 1,-3 1,-4 0,-1 1,-1 1,-2 1,-1 2,-2 3,-2 1,0 2,-1 3,-1 1,0 2,1 3,1 1,0 2,1 3,2 0,1 1,1 1,2 0,1 0,3 0,4l0 0c0,1 0,2 0,3 0,1 -1,2 -1,3 -1,1 -2,1 -3,2 -1,0 -2,0 -3,0 -1,0 -2,0 -3,0 -1,-1 -2,-1 -3,-2 0,-1 -1,-2 -1,-3 0,-1 -1,-2 -1,-3l0 0zm5 0c0,1 0,1 0,2 0,0 0,1 0,1 1,1 1,1 1,1 1,1 1,1 2,1 1,0 1,0 1,-1 1,0 1,0 1,-1 1,0 1,-1 1,-1 0,-1 0,-1 0,-2l0 0c0,-1 0,-2 0,-2 0,-1 0,-1 -1,-2 0,0 0,0 -1,-1 0,0 0,0 -1,0 -1,0 -1,0 -2,0 0,1 0,1 -1,1 0,1 0,1 0,2 0,0 0,1 0,2l0 0zm27 2l2 -10 4 0 -4 16 -4 0 -3 -10 -3 10 -3 0 -4 -16 4 0 2 10 3 -10 3 0 3 10zm15 6c-1,0 -2,0 -3,0 -1,-1 -2,-1 -2,-2 -1,-1 -1,-2 -2,-3 0,0 0,-1 0,-3l0 0c0,-1 0,-3 0,-4 0,-1 1,-1 2,-2 0,-1 1,-2 2,-2 1,0 2,-1 3,-1 1,0 2,1 3,1 1,0 2,1 2,2 1,0 1,1 2,2 0,1 0,2 0,3l0 2 -10 0c0,1 0,1 0,2 1,0 1,1 1,1 0,0 1,0 1,1 1,0 1,0 2,0 1,0 1,0 2,-1 1,0 1,0 2,-1l2 2c-1,1 -1,1 -1,1 -1,1 -1,1 -2,1 0,1 -1,1 -1,1 -1,0 -2,0 -3,0zm0 -13c0,0 -1,0 -1,0 -1,0 -1,1 -1,1 0,0 -1,1 -1,1 0,0 0,1 0,1l6 0 0 0c0,0 0,-1 0,-1 0,-1 -1,-1 -1,-1 0,0 0,-1 -1,-1 0,0 -1,0 -1,0zm18 1c0,0 0,0 0,0 -1,0 -1,0 -1,0 -1,0 -2,0 -2,0 -1,0 -1,1 -1,1l0 11 -5 0 0 -16 4 0 1 2c0,-1 0,-2 1,-2 1,0 1,-1 2,-1 0,0 1,0 1,0 0,1 0,1 0,1l0 4zm9 12c-1,0 -2,0 -3,0 -1,-1 -2,-1 -2,-2 -1,-1 -2,-2 -2,-3 0,0 0,-1 0,-3l0 0c0,-1 0,-3 0,-4 0,-1 1,-1 2,-2 0,-1 1,-2 2,-2 1,0 2,-1 3,-1 1,0 2,1 3,1 1,0 2,1 2,2 1,0 1,1 2,2 0,1 0,2 0,3l0 2 -10 0c0,1 0,1 0,2 0,0 1,1 1,1 0,0 1,0 1,1 1,0 1,0 2,0 0,0 1,0 2,-1 1,0 1,0 2,-1l2 2c-1,1 -1,1 -1,1 -1,1 -1,1 -2,1 0,1 -1,1 -1,1 -1,0 -2,0 -3,0zm0 -13c-1,0 -1,0 -1,0 -1,0 -1,1 -1,1 0,0 -1,1 -1,1 0,0 0,1 0,1l6 0 0 0c0,0 0,-1 0,-1 -1,-1 -1,-1 -1,-1 0,0 0,-1 -1,-1 0,0 -1,0 -1,0zm9 5c0,-2 0,-3 0,-4 0,-1 1,-2 1,-2 1,-1 2,-2 2,-2 1,0 2,-1 3,-1 1,0 1,1 2,1 1,0 1,1 2,1l0 -8 4 0 0 23 -4 0 0 -2c-1,1 -1,1 -2,2 0,0 -1,0 -2,0 -1,0 -2,0 -3,0 0,-1 -1,-1 -2,-2 0,-1 -1,-2 -1,-3 0,-1 0,-2 0,-3l0 0zm4 0c0,1 0,1 0,2 0,0 0,1 1,1 0,1 0,1 1,1 0,1 0,1 1,1 1,0 1,0 2,-1 0,0 1,0 1,-1l0 -6c0,-1 -1,-1 -1,-2 -1,0 -1,0 -2,0 -1,0 -1,0 -1,0 -1,1 -1,1 -1,1 -1,1 -1,1 -1,2 0,0 0,1 0,2l0 0zm35 0c0,1 0,2 0,3 -1,1 -1,2 -1,3 -1,1 -2,1 -2,2 -1,0 -2,0 -3,0 -1,0 -2,0 -2,0 -1,-1 -2,-1 -2,-2l0 2 -4 0 0 -23 4 0 0 8c1,0 1,-1 2,-1 0,0 1,-1 2,-1 1,0 2,1 3,1 0,0 1,1 2,2 0,0 0,1 1,2 0,1 0,2 0,4l0 0zm-4 0c0,-1 0,-2 0,-2 0,-1 -1,-1 -1,-2 0,0 0,0 -1,-1 0,0 -1,0 -1,0 -1,0 -1,0 -2,0 0,1 -1,1 -1,2l0 6c0,1 1,1 1,1 1,1 1,1 2,1 0,0 1,0 1,-1 1,0 1,0 1,-1 0,0 1,0 1,-1 0,-1 0,-1 0,-2l0 0zm12 2l3 -10 5 0 -6 18c-1,1 -1,1 -1,2 0,0 0,1 -1,1 0,1 -1,1 -1,1 -1,0 -2,1 -2,1 -1,0 -1,0 -1,0 0,0 0,0 0,0 -1,0 -1,-1 -1,-1 0,0 0,0 0,0l0 -3c0,0 0,0 0,0 0,0 0,0 0,0 1,0 1,0 1,0 1,0 1,0 1,0 0,-1 1,-1 1,-1 0,0 0,0 0,-1l1 -1 -6 -16 5 0 2 10zm10 4c0,0 0,-1 0,-1 0,0 0,-1 1,-1 0,0 0,0 0,0 1,0 1,0 1,0 1,0 1,0 1,0 1,0 1,0 1,0 0,0 0,1 1,1 0,0 0,1 0,1 0,0 0,1 0,1 -1,0 -1,0 -1,1 0,0 0,0 -1,0 0,0 0,0 -1,0 0,0 0,0 -1,0 0,0 0,0 0,0 -1,-1 -1,-1 -1,-1 0,0 0,-1 0,-1zm0 -12c0,-1 0,-1 0,-1 0,-1 0,-1 1,-1 0,0 0,-1 0,-1 1,0 1,0 1,0 1,0 1,0 1,0 1,0 1,1 1,1 0,0 0,0 1,1 0,0 0,0 0,1 0,0 0,0 0,0 -1,1 -1,1 -1,1 0,0 0,1 -1,1 0,0 0,0 -1,0 0,0 0,0 -1,0 0,0 0,-1 0,-1 -1,0 -1,0 -1,-1 0,0 0,0 0,0z"/>
   <path class="fil1" d="M265 255c0,1 0,2 0,3 -1,1 -1,2 -2,2 -1,1 -1,1 -2,2 -1,0 -3,0 -4,0 -1,0 -2,0 -3,0 -2,-1 -2,-2 -3,-3 -1,0 -2,-1 -2,-3 0,-1 -1,-2 -1,-4l0 -2c0,-1 1,-3 1,-4 1,-1 1,-2 2,-3 1,-1 2,-2 3,-2 1,-1 2,-1 3,-1 2,0 3,0 4,0 1,1 1,1 2,2 1,1 1,1 2,2 0,1 0,2 0,3l-3 0c0,0 0,-1 -1,-2 0,0 0,-1 0,-1 -1,0 -1,-1 -2,-1 0,0 -1,0 -2,0 -1,0 -1,0 -2,0 -1,1 -1,1 -2,2 0,0 0,1 0,2 -1,1 -1,2 -1,3l0 2c0,1 0,2 0,3 1,1 1,2 1,2 1,1 1,1 2,2 0,0 1,0 2,0 1,0 2,0 2,0 1,0 1,-1 1,-1 1,0 1,-1 1,-1 1,-1 1,-1 1,-2l3 0zm7 -8c1,0 1,-1 2,-1 1,0 1,-1 2,-1 1,0 2,1 2,1 1,0 2,0 2,1 1,0 1,1 1,2 0,0 1,1 1,3l0 10 -4 0 0 -11c0,-1 0,-1 -1,-2 0,0 -1,-1 -2,-1 -1,0 -1,1 -2,1 0,0 -1,1 -1,1l0 12 -4 0 0 -23 4 0 0 8zm20 15c-1,0 -2,0 -3,0 -1,-1 -2,-1 -2,-2 -1,-1 -2,-1 -2,-2 0,-1 0,-2 0,-4l0 0c0,-1 0,-3 0,-4 0,-1 1,-2 2,-2 0,-1 1,-2 2,-2 1,0 2,-1 3,-1 1,0 2,1 3,1 1,0 1,1 2,2 0,0 1,1 1,2 0,1 1,2 1,3l0 2 -11 0c0,1 0,1 1,2 0,0 0,1 0,1 1,1 1,1 2,1 0,0 1,0 1,0 1,0 2,0 3,0 0,-1 1,-1 1,-2l2 2c0,1 0,1 -1,1 0,1 -1,1 -1,1 -1,1 -1,1 -2,1 0,0 -1,0 -2,0zm0 -14c-1,0 -2,1 -3,1 0,1 -1,2 -1,3l7 0 0 0c0,0 0,-1 0,-1 0,-1 -1,-1 -1,-2 0,0 0,0 -1,0 0,-1 -1,-1 -1,-1zm18 10c0,-1 0,-1 0,-1 0,0 0,-1 0,-1 -1,0 -1,0 -1,0 -1,-1 -2,-1 -2,-1 -1,0 -2,0 -3,0 0,-1 -1,-1 -1,-1 -1,-1 -1,-1 -2,-2 0,0 0,-1 0,-2 0,0 0,-1 0,-2 1,0 1,-1 2,-1 0,-1 1,-1 2,-1 0,0 1,-1 2,-1 1,0 2,1 3,1 1,0 1,0 2,1 0,0 1,1 1,2 0,0 1,1 1,2l-4 0c0,-1 0,-1 0,-1 0,-1 0,-1 -1,-1 0,0 0,-1 -1,-1 0,0 0,0 -1,0 0,0 -1,0 -1,0 0,0 -1,1 -1,1 0,0 0,0 0,0 0,1 0,1 0,1 0,0 0,1 0,1 0,0 0,0 0,0 0,1 1,1 1,1 1,0 1,0 2,0 1,1 2,1 2,1 1,0 2,1 2,1 1,0 1,1 1,1 1,1 1,2 1,2 0,1 0,2 -1,2 0,1 -1,1 -1,2 -1,0 -1,1 -2,1 -1,0 -2,0 -3,0 -1,0 -2,0 -3,0 0,0 -1,-1 -2,-1 0,-1 -1,-2 -1,-2 0,-1 0,-1 0,-2l3 0c0,0 0,1 0,1 1,0 1,1 1,1 0,0 1,0 1,0 1,1 1,1 1,1 1,0 2,-1 2,-1 1,0 1,-1 1,-1zm16 4c0,0 0,0 0,-1 0,0 0,0 0,-1 0,1 -1,1 -1,1 0,0 -1,1 -1,1 0,0 -1,0 -1,0 0,0 -1,0 -1,0 -1,0 -2,0 -2,0 -1,0 -2,-1 -2,-1 -1,-1 -1,-1 -1,-2 -1,0 -1,-1 -1,-2 0,0 0,-1 1,-2 0,-1 1,-1 1,-2 1,0 2,0 2,-1 1,0 2,0 4,0l2 0 0 -1c0,-1 0,-2 -1,-2 0,-1 -1,-1 -2,-1 0,0 -1,0 -1,0 -1,0 -1,1 -1,1 0,0 0,0 -1,1 0,0 0,0 0,0l-3 0c0,0 0,-1 0,-1 0,-1 1,-2 1,-2 1,-1 2,-1 2,-1 1,0 2,-1 3,-1 1,0 2,1 3,1 0,0 1,0 2,1 0,0 1,1 1,2 0,0 0,1 0,2l0 7c0,2 1,3 1,4l0 0 -4 0zm-4 -3c1,0 1,0 2,0 0,0 0,0 0,0 1,0 1,-1 1,-1 0,0 1,0 1,-1l0 -3 -2 0c-1,0 -2,1 -3,1 -1,1 -1,1 -1,2 0,0 0,1 0,1 0,0 0,1 1,1 0,0 0,0 0,0 1,0 1,0 1,0zm19 3l0 -22 6 0c2,0 3,0 4,1 1,0 2,1 3,2 1,1 2,2 2,3 1,1 1,3 1,5l0 1c0,1 0,3 -1,4 0,1 -1,2 -2,3 -1,1 -2,2 -3,2 -1,1 -2,1 -4,1l-6 0zm4 -19l0 16 2 0c1,0 2,0 3,-1 0,0 1,0 2,-1 0,-1 0,-1 1,-2 0,-1 0,-2 0,-3l0 -2c0,-2 0,-4 -1,-5 -1,-1 -3,-2 -5,-2l-2 0zm22 19c-1,0 -2,0 -3,0 -1,-1 -2,-1 -2,-2 -1,-1 -2,-1 -2,-2 0,-1 0,-2 0,-4l0 0c0,-1 0,-3 0,-4 1,-1 1,-2 2,-2 0,-1 1,-2 2,-2 1,0 2,-1 3,-1 1,0 2,1 3,1 1,0 1,1 2,2 0,0 1,1 1,2 0,1 1,2 1,3l0 2 -11 0c0,1 0,1 1,2 0,0 0,1 0,1 1,1 1,1 2,1 0,0 1,0 1,0 1,0 2,0 3,0 0,-1 1,-1 1,-2l2 2c0,1 0,1 -1,1 0,1 0,1 -1,1 0,1 -1,1 -2,1 0,0 -1,0 -2,0zm0 -14c-1,0 -2,1 -3,1 0,1 -1,2 -1,3l7 0 0 0c0,0 0,-1 0,-1 0,-1 -1,-1 -1,-2 0,0 0,0 -1,0 0,-1 -1,-1 -1,-1zm13 -2l0 2c0,-1 1,-2 2,-2 1,0 1,-1 2,-1 1,0 2,1 2,1 1,0 2,0 2,1 0,0 1,1 1,2 0,0 0,1 0,2l0 11 -3 0 0 -11c0,0 0,-1 0,-1 0,0 -1,-1 -1,-1 0,0 0,0 -1,0 0,-1 -1,-1 -1,-1 -1,0 -1,1 -2,1 0,0 -1,1 -1,1l0 12 -4 0 0 -16 4 0zm18 -4l0 4 2 0 0 2 -2 0 0 10c0,0 0,0 0,0 0,1 0,1 0,1 0,0 0,0 0,0 1,0 1,0 1,0 0,0 1,0 1,0 0,0 0,0 0,0l0 3c0,0 0,0 -1,0 0,0 0,0 -1,0 -1,0 -1,0 -2,0 0,0 -1,0 -1,-1 0,0 -1,-1 -1,-1 0,-1 0,-1 0,-2l0 -10 -3 0 0 -2 3 0 0 -4 4 0zm15 20c-1,0 -1,0 -1,-1 0,0 0,0 0,-1 0,1 0,1 -1,1 0,0 0,1 -1,1 0,0 0,0 -1,0 0,0 -1,0 -1,0 -1,0 -2,0 -2,0 -1,0 -1,-1 -2,-1 0,-1 -1,-1 -1,-2 0,0 0,-1 0,-2 0,0 0,-1 0,-2 0,-1 1,-1 1,-2 1,0 2,0 3,-1 1,0 2,0 3,0l2 0 0 -1c0,-1 0,-2 -1,-2 0,-1 -1,-1 -2,-1 0,0 -1,0 -1,0 0,0 -1,1 -1,1 0,0 0,0 0,1 -1,0 -1,0 -1,0l-3 0c0,0 0,-1 0,-1 1,-1 1,-2 2,-2 0,-1 1,-1 2,-1 1,0 1,-1 2,-1 1,0 2,1 3,1 1,0 1,0 2,1 0,0 1,1 1,2 0,0 1,1 1,2l0 7c0,2 0,3 0,4l0 0 -3 0zm-4 -3c0,0 0,0 1,0 0,0 0,0 1,0 0,0 0,-1 0,-1 1,0 1,0 1,-1l0 -3 -2 0c-1,0 -2,1 -3,1 -1,1 -1,1 -1,2 0,0 0,1 0,1 0,0 1,1 1,1 0,0 0,0 1,0 0,0 0,0 1,0zm14 3l-3 0 0 -23 3 0 0 23zm28 -7c0,1 0,2 -1,3 0,1 -1,2 -1,2 -1,1 -2,1 -3,2 -1,0 -2,0 -3,0 -2,0 -3,0 -4,0 -1,-1 -2,-2 -3,-3 0,0 -1,-1 -1,-3 -1,-1 -1,-2 -1,-4l0 -2c0,-1 0,-3 1,-4 0,-1 1,-2 2,-3 0,-1 1,-2 2,-2 1,-1 3,-1 4,-1 1,0 2,0 3,0 1,1 2,1 3,2 0,1 1,1 1,2 1,1 1,2 1,3l-4 0c0,0 0,-1 0,-2 0,0 0,-1 -1,-1 0,0 -1,-1 -1,-1 -1,0 -1,0 -2,0 -1,0 -2,0 -2,0 -1,1 -1,1 -2,2 0,0 -1,1 -1,2 0,1 0,2 0,3l0 2c0,1 0,2 0,3 0,1 1,2 1,2 0,1 1,1 2,2 0,0 1,0 2,0 1,0 1,0 2,0 0,0 1,-1 1,-1 1,0 1,-1 1,-1 0,-1 0,-1 0,-2l4 0zm13 7c-1,0 -1,0 -1,-1 0,0 0,0 0,-1 0,1 0,1 -1,1 0,0 0,1 -1,1 0,0 0,0 -1,0 0,0 -1,0 -1,0 -1,0 -2,0 -2,0 -1,0 -1,-1 -2,-1 0,-1 -1,-1 -1,-2 0,0 0,-1 0,-2 0,0 0,-1 0,-2 0,-1 1,-1 1,-2 1,0 2,0 3,-1 1,0 2,0 3,0l2 0 0 -1c0,-1 0,-2 -1,-2 0,-1 -1,-1 -2,-1 0,0 -1,0 -1,0 0,0 -1,1 -1,1 0,0 0,0 0,1 0,0 -1,0 -1,0l-3 0c0,0 0,-1 0,-1 1,-1 1,-2 2,-2 0,-1 1,-1 2,-1 1,0 1,-1 2,-1 1,0 2,1 3,1 1,0 1,0 2,1 0,0 1,1 1,2 0,0 1,1 1,2l0 7c0,2 0,3 0,4l0 0 -3 0zm-4 -3c0,0 0,0 1,0 0,0 0,0 1,0 0,0 0,-1 1,-1 0,0 0,0 0,-1l0 -3 -2 0c-1,0 -2,1 -3,1 -1,1 -1,1 -1,2 0,0 0,1 0,1 0,0 1,1 1,1 0,0 0,0 1,0 0,0 0,0 1,0zm19 -10c-1,0 -1,0 -1,0 0,0 -1,0 -1,0 -1,0 -1,0 -2,0 0,1 -1,1 -1,2l0 11 -4 0 0 -16 4 0 0 2c0,-1 1,-2 1,-2 1,0 2,-1 2,-1 1,0 1,0 1,0 0,1 1,1 1,1l0 3zm9 13c-2,0 -3,0 -4,0 0,-1 -1,-1 -2,-2 -1,-1 -1,-1 -1,-2 -1,-1 -1,-2 -1,-4l0 0c0,-1 0,-3 1,-4 0,-1 0,-2 1,-2 1,-1 2,-2 2,-2 1,0 2,-1 3,-1 1,0 2,1 3,1 1,0 2,1 2,2 1,0 1,1 2,2 0,1 0,2 0,3l0 2 -10 0c0,1 0,1 0,2 0,0 1,1 1,1 0,1 1,1 1,1 1,0 1,0 2,0 1,0 1,0 2,0 1,-1 1,-1 2,-2l2 2c0,1 -1,1 -1,1 -1,1 -1,1 -2,1 0,1 -1,1 -1,1 -1,0 -2,0 -2,0zm-1 -14c-1,0 -2,1 -2,1 -1,1 -1,2 -1,3l6 0 0 0c0,0 0,-1 0,-1 0,-1 0,-1 0,-2 -1,0 -1,0 -1,0 -1,-1 -1,-1 -2,-1z"/>
   <polygon class="fil1" points="534,158 537,158 539,158 545,158 576,158 578,158 578,160 578,253 578,255 576,255 522,255 507,255 501,255 501,253 501,251 501,251 507,251 522,251 574,251 574,162 545,162 539,162 537,162 534,162 534,163 530,163 524,168 515,168 515,165 509,165 509,163 515,163 515,157 509,157 509,155 515,155 515,153 524,153 530,157 534,157 "/>
   <path class="fil0" d="M65 77c0,0 -64,41 -27,129 0,2 8,17 26,-1 4,-5 10,-13 22,-22 15,-13 30,-23 39,-26 0,0 -12,18 -26,40l0 0c18,2 28,-4 28,-4 -8,-26 7,-35 8,-36 2,-4 0,-5 0,-5l0 -3 26 0c0,0 6,5 -2,15 -1,1 -5,6 -2,9 2,2 11,26 -11,37 -4,1 -10,3 -19,4 -6,1 -10,1 -10,1l0 0c-7,1 -18,1 -24,2 -2,0 -4,0 -4,0 -4,1 -8,4 -9,6 -10,14 -22,29 -35,41 -7,7 -14,3 -18,-1 -1,-1 -2,-3 -3,-5 0,0 0,0 -1,0l0 0c-1,-3 -3,-7 -5,-13 -28,-89 -30,-200 47,-168z"/>
   <path class="fil0" d="M153 95c0,0 34,-22 13,-34 -8,-4 -26,-11 -47,-42l-6 -9 0 0 0 0 0 0 0 0c-1,5 -5,9 -9,9 -1,0 -2,0 -3,0 0,0 1,1 1,3l0 0 0 0c4,6 14,19 29,30 5,4 10,7 10,7 0,0 10,6 5,15 -5,8 -23,22 -23,23 0,1 -6,5 4,15 4,4 11,6 11,14l0 0c0,0 -1,3 -2,4l0 0c-1,1 -1,2 -1,2l0 1 0 0 0 0 26 0c0,0 4,-2 3,-7 0,-3 -2,-7 -8,-11 0,-1 0,-1 0,-1l0 0c-5,-4 -14,-9 -3,-19z"/>
   <path class="fil2" d="M110 8c0,4 -3,7 -8,7 -4,0 -7,-3 -7,-7 0,-5 3,-8 7,-8 5,0 8,3 8,8z"/>
   <path class="fil1" d="M48 98c-15,20 -20,40 -18,65 1,11 6,45 16,47 8,1 18,-12 23,-17 14,-13 37,-30 55,-37 -25,9 -42,19 -61,38 -14,14 -19,15 -24,-7 -5,-22 -12,-66 12,-74l2 -1c0,0 0,-11 -5,-14z"/>
   <path class="fil0" d="M115 141c-4,1 -9,3 -7,-6 0,-3 1,-9 2,-10 8,-2 5,2 5,16zm4 3c-4,0 -2,-3 -2,-8 0,-4 1,-6 1,-11 0,0 5,-2 5,3 0,2 -2,5 -3,7 -1,3 -1,5 -1,9zm-36 -12c-6,2 -7,3 -13,0 0,-2 1,-11 3,-12 2,-1 11,-1 11,3 0,4 -1,6 -1,9zm20 6c-5,0 -7,0 -5,-7 1,-5 0,-8 7,-8 1,0 2,1 3,2 -1,4 -2,13 -5,13zm-13 0c-8,0 -6,-13 -2,-15 3,-2 6,-1 8,2 0,1 0,13 -6,13zm-40 -40c3,1 4,5 5,9 1,9 -3,4 6,7 4,0 8,2 9,5 0,2 -2,10 -2,13 -7,0 -9,3 -8,-10 0,-2 1,-2 -3,-2 0,4 -4,15 8,15 4,0 1,-1 5,1 6,3 7,0 13,0 3,5 7,7 12,3 9,6 6,0 11,4 3,3 6,2 9,2 3,4 7,3 7,-3 1,-9 6,-11 4,-15 -3,-8 -7,-5 -9,-5 -2,0 -2,-2 -4,-2 -2,0 -2,2 -4,2 -1,0 -6,-4 -11,0 -6,-4 -5,-3 -12,-2 -2,-6 -13,-3 -15,-3 -1,-3 -5,-5 -8,-7 -6,-5 -4,-16 -1,-23 1,-2 4,-7 5,-9 -6,4 -16,15 -17,20z"/>
  </g>
 </g>
</svg>
