<?xml version="1.0" standalone="no"?>
<!DOCTYPE svg PUBLIC "-//W3C//DTD SVG 20010904//EN"
 "http://www.w3.org/TR/2001/REC-SVG-20010904/DTD/svg10.dtd">
<svg version="1.0" xmlns="http://www.w3.org/2000/svg"
 width="111.000000pt" height="36.000000pt" viewBox="0 0 111.000000 36.000000"
 preserveAspectRatio="xMidYMid meet">
<metadata>
Created by potrace 1.16, written by Peter Selinger 2001-2019
</metadata>
<g transform="translate(0.000000,36.000000) scale(0.023820,-0.016667)"
fill="#000000" stroke="none">
<path d="M910 2070 c0 -21 -49 -60 -75 -60 -14 0 -25 -3 -25 -6 0 -12 64 -97
115 -153 31 -32 97 -91 149 -130 142 -107 142 -114 1 -253 -58 -58 -105 -113
-105 -122 0 -31 29 -73 79 -115 58 -49 69 -73 47 -106 -29 -43 -23 -46 101
-43 117 3 118 3 127 29 14 42 0 72 -64 135 -83 81 -81 98 17 175 70 55 123
128 123 169 0 41 -25 67 -113 112 -99 51 -236 182 -316 301 -51 76 -61 87 -61
67z"/>
<path d="M250 1581 c-75 -24 -142 -84 -180 -159 -114 -228 -84 -748 72 -1227
47 -147 117 -212 193 -181 46 19 148 126 252 263 49 65 96 116 111 122 15 6
96 15 180 21 187 13 242 23 310 56 78 38 107 87 107 178 0 48 -6 82 -18 105
-17 34 -17 34 14 87 19 33 29 64 27 81 l-3 28 -119 3 -118 3 6 -27 c5 -20 2
-30 -14 -41 -51 -36 -76 -142 -60 -253 5 -33 4 -34 -40 -47 -25 -8 -71 -12
-103 -11 l-57 3 104 156 c100 150 104 157 81 162 -14 2 -22 0 -19 -4 2 -4 -10
-16 -28 -25 -18 -9 -66 -39 -105 -66 -40 -26 -75 -49 -77 -49 -12 -2 -112 -95
-201 -185 -107 -109 -128 -124 -172 -124 -45 0 -69 25 -97 97 -71 187 -91 366
-58 524 20 99 85 255 101 245 5 -3 8 2 7 12 0 9 4 16 11 15 7 -2 10 3 7 11 -3
7 26 45 67 87 39 41 53 53 31 28 -60 -69 -67 -87 -47 -109 10 -11 20 -39 22
-64 5 -43 7 -45 44 -51 22 -4 48 -14 60 -24 18 -14 19 -23 13 -69 -6 -50 -8
-53 -33 -50 -23 3 -26 8 -29 51 -3 39 -6 47 -23 47 -16 0 -19 -7 -19 -48 0
-34 5 -54 18 -64 18 -17 76 -28 153 -31 30 -1 54 -9 68 -21 14 -13 29 -17 49
-13 28 6 103 -11 118 -26 4 -4 20 -7 36 -7 15 0 37 -5 47 -12 26 -16 51 -3 51
27 0 14 7 42 15 62 29 70 10 123 -46 123 -13 0 -62 3 -109 6 -47 3 -101 6
-120 6 -19 1 -41 7 -48 15 -7 7 -31 13 -53 13 -48 0 -111 41 -134 87 -20 42
-13 89 26 165 l29 56 -63 22 c-67 23 -196 35 -237 21z"/>
<path d="M1481 1283 c0 -4 37 -116 82 -248 l82 -240 41 -3 40 -3 87 238 c48
131 87 244 87 251 0 9 -12 12 -37 10 l-36 -3 -54 -150 c-29 -82 -58 -169 -64
-192 -6 -24 -14 -43 -18 -43 -3 0 -33 87 -66 193 l-60 192 -43 3 c-23 2 -42 0
-41 -5z"/>
<path d="M1950 1040 l0 -250 35 0 35 0 0 250 0 250 -35 0 -35 0 0 -250z"/>
<path d="M2415 1276 c-48 -22 -68 -51 -73 -109 -4 -47 -1 -57 24 -86 16 -19
58 -47 100 -66 74 -34 94 -55 94 -99 0 -57 -109 -88 -181 -50 -36 18 -37 17
-45 -23 -5 -27 -2 -31 27 -43 51 -21 158 -18 199 5 52 31 75 69 75 125 0 66
-25 97 -118 143 -109 53 -133 103 -71 144 24 15 96 15 135 -1 20 -9 46 41 29
58 -17 17 -160 19 -195 2z"/>
<path d="M2825 1266 c-60 -28 -87 -56 -114 -116 -23 -51 -28 -150 -10 -213 24
-89 121 -152 234 -152 88 0 135 12 135 35 0 38 -10 49 -37 39 -36 -13 -129
-11 -166 5 -96 40 -131 184 -71 287 38 64 152 98 230 69 31 -12 44 -1 44 36 0
27 -23 34 -120 34 -58 0 -86 -6 -125 -24z"/>
<path d="M3275 1273 c-17 -47 -165 -472 -165 -477 0 -3 17 -6 38 -6 l38 0 24
75 24 75 85 0 86 0 26 -72 26 -73 41 -3 41 -3 -61 173 c-33 95 -72 208 -86
251 l-26 77 -42 0 c-31 0 -44 -5 -49 -17z"/>
<path d="M3600 1040 l0 -250 35 0 35 0 1 188 c0 149 3 183 12 168 237 -376
219 -351 260 -354 l37 -3 0 250 0 251 -36 0 -36 0 4 -190 3 -189 -22 37 c-12
20 -65 106 -118 190 l-97 152 -39 0 -39 0 0 -250z"/>
<path d="M1490 215 c0 -20 -5 -25 -24 -25 -14 0 -32 -10 -40 -22 l-16 -22 -16
22 c-21 30 -77 30 -98 0 -20 -29 -20 -67 0 -96 13 -19 24 -22 57 -20 36 3 42
6 41 25 -1 31 14 29 26 -2 9 -23 15 -25 65 -25 l55 0 0 95 c0 95 0 95 -25 95
-20 0 -25 -5 -25 -25z"/>
<path d="M1610 145 l0 -95 55 0 c43 0 56 4 65 19 26 50 -1 121 -46 121 -19 0
-24 5 -24 25 0 20 -5 25 -25 25 -25 0 -25 0 -25 -95z"/>
<path d="M600 140 c0 -89 0 -90 25 -90 21 0 25 5 25 30 0 26 4 30 26 30 45 0
64 17 64 58 0 51 -14 62 -82 62 l-58 0 0 -90z"/>
<path d="M766 168 c-22 -30 -20 -81 2 -101 23 -21 76 -22 96 -1 20 20 20 73 0
102 -10 15 -25 22 -49 22 -24 0 -39 -7 -49 -22z"/>
<path d="M883 178 c2 -7 10 -39 17 -70 10 -46 17 -58 32 -58 12 0 23 11 30 33
l12 32 8 -32 c12 -48 44 -45 57 5 25 90 25 102 3 102 -15 0 -22 -9 -28 -32
l-7 -33 -9 33 c-10 37 -48 47 -48 13 0 -11 -4 -23 -10 -26 -6 -4 -10 5 -10 19
0 21 -5 26 -26 26 -17 0 -24 -4 -21 -12z"/>
<path d="M1740 177 c0 -8 9 -40 20 -73 18 -52 19 -60 5 -70 -25 -18 -18 -36
13 -32 24 3 30 12 59 93 17 50 32 82 32 73 1 -27 51 -25 51 2 0 17 -7 20 -50
20 -45 0 -50 -3 -56 -25 -8 -31 -22 -32 -26 -2 -3 25 -48 39 -48 14z"/>
</g>
</svg>
