<?xml version="1.0" encoding="UTF-8"?>
<!DOCTYPE svg PUBLIC "-//W3C//DTD SVG 1.1//EN" "http://www.w3.org/Graphics/SVG/1.1/DTD/svg11.dtd">
<!-- Creator: CorelDRAW X7 -->
<svg xmlns="http://www.w3.org/2000/svg" xml:space="preserve" width="179.237mm" height="83.2949mm" version="1.1" style="shape-rendering:geometricPrecision; text-rendering:geometricPrecision; image-rendering:optimizeQuality; fill-rule:evenodd; clip-rule:evenodd"
viewBox="0 0 17924 8329"
 xmlns:xlink="http://www.w3.org/1999/xlink">
 <defs>
  <style type="text/css">
   <![CDATA[
    .fil2 {fill:#EEB542}
    .fil0 {fill:#54224C}
    .fil1 {fill:#EDB237;fill-rule:nonzero}
   ]]>
  </style>
 </defs>
 <g id="Layer_x0020_1">
  <metadata id="CorelCorpID_0Corel-Layer"/>
  <path class="fil0" d="M2016 2397c-1,0 -1977,1261 -849,3995 24,52 262,534 811,-34 132,-166 328,-399 682,-685 485,-392 942,-696 1223,-808 0,2 -364,568 -827,1236l2 -2c556,81 887,-109 883,-109 -240,-818 206,-1105 253,-1135 63,-117 -15,-126 -15,-126l0 -99 824 1c0,0 179,140 -83,457 -31,40 -141,179 -58,265 66,88 357,812 -344,1153 -101,43 -292,106 -584,137 -170,25 -303,30 -303,30l0 0c-224,23 -552,35 -750,46 -64,6 -109,10 -135,13 -125,25 -221,124 -268,182 -314,427 -671,915 -1073,1262 -227,215 -434,92 -558,-31 -38,-34 -76,-80 -114,-139 -2,-4 -4,-7 -5,-8l0 0c-59,-97 -117,-229 -171,-409 -878,-2757 -939,-6193 1459,-5192z"/>
  <path class="fil0" d="M4738 2947c0,0 1076,-698 417,-1048 -247,-116 -824,-337 -1470,-1310l-169 -271 0 -1 0 0 0 0 0 0c-28,160 -154,282 -306,282 -30,0 -60,-5 -88,-15 8,14 26,45 54,88l1 1 0 0c122,187 425,607 878,931 161,133 321,240 321,240 0,0 293,184 160,437 -171,252 -707,692 -721,729 -13,38 -188,168 130,478 115,104 348,163 325,423l-1 0c0,0 -9,75 -38,109l1 0c-31,40 -55,62 -55,62l0 50 0 0 0 0 825 -1c0,0 105,-77 88,-220 -8,-89 -66,-208 -240,-355 -7,-6 -14,-12 -21,-18l0 0c-144,-120 -431,-275 -91,-591z"/>
  <path class="fil1" d="M3410 233c0,129 -104,233 -233,233 -129,0 -233,-104 -233,-233 0,-129 104,-233 233,-233 129,0 233,104 233,233z"/>
  <path class="fil2" d="M1491 3049c-462,617 -630,1223 -558,2009 30,326 196,1402 501,1448 243,37 545,-350 718,-510 436,-404 1148,-943 1694,-1170 -780,283 -1311,599 -1898,1188 -442,443 -588,464 -738,-224 -144,-660 -357,-2030 357,-2280l73 -26c0,0 18,-338 -149,-435z"/>
  <path class="fil0" d="M6626 5260l686 -1869 -265 0 -324 923c-88,244 -165,480 -219,696l-6 0c-54,-219 -125,-446 -205,-699l-299 -920 -271 0 630 1869 273 0zm891 -1869l0 1869 251 0 0 -1869 -251 0zm553 1031l0 178 703 0 0 -178 -703 0zm908 746c102,67 304,123 489,123 453,0 670,-253 670,-541 0,-275 -163,-427 -487,-549 -265,-100 -382,-186 -382,-361 0,-128 100,-280 362,-280 173,0 302,53 361,89l69 -197c-83,-47 -228,-92 -422,-92 -373,0 -620,216 -620,508 0,260 193,421 506,532 260,95 362,197 362,369 0,189 -148,319 -401,319 -171,0 -331,-53 -442,-122l-65 202zm2790 -160c-100,47 -253,77 -407,77 -464,0 -735,-291 -735,-751 0,-491 299,-771 749,-771 160,0 293,33 384,77l63 -197c-65,-33 -219,-83 -455,-83 -596,0 -1003,394 -1003,982 0,616 405,949 946,949 233,0 418,-45 506,-89l-48 -194zm1364 -336l205 588 265 0 -655 -1869 -296 0 -655 1869 256 0 199 -588 681 0zm-629 -189l187 -540c40,-114 69,-231 97,-339l6 0c28,108 57,219 100,341l190 538 -580 0zm1614 777l0 -799c0,-310 -3,-535 -17,-771l8 -3c94,203 222,416 356,624l610 949 250 0 0 -1869 -233 0 0 782c0,291 5,518 28,768l-8 3c-89,-192 -203,-388 -342,-608l-612 -945 -274 0 0 1869 234 0z"/>
  <path class="fil2" d="M6293 6568c63,8 146,14 256,14 202,0 368,-47 471,-140 99,-89 162,-225 162,-409 0,-174 -61,-298 -163,-379 -96,-79 -229,-119 -424,-119 -112,0 -217,9 -302,22l0 1011zm190 -876c28,-6 69,-10 129,-10 238,0 371,131 370,357 0,261 -147,397 -394,395 -39,0 -79,0 -105,-4l0 -738zm865 -149l0 1028 190 0 0 -1028 -190 0zm945 737l94 291 206 0 -339 -1028 -242 0 -334 1028 196 0 90 -291 329 0zm-298 -142l80 -253c17,-61 34,-133 50,-193l3 0c15,60 32,130 52,193l82 253 -267 0zm1545 -134l-368 0 0 148 184 0 0 258c-25,10 -74,20 -144,20 -216,0 -361,-139 -361,-373 0,-239 156,-369 378,-369 110,0 179,18 236,44l42 -152c-48,-22 -148,-48 -276,-48 -345,0 -578,208 -580,534 0,156 53,292 146,379 98,93 233,137 409,137 137,0 267,-33 334,-58l0 -520zm369 567l0 -367c0,-170 -3,-306 -11,-438l6 -2c51,116 119,241 185,354l272 453 198 0 0 -1028 -176 0 0 359c0,157 3,289 17,427l-3 0c-48,-112 -110,-231 -178,-345l-269 -441 -217 0 0 1028 176 0zm1311 -1046c-293,0 -496,222 -496,540 0,300 186,523 481,523 285,0 497,-197 497,-541 0,-295 -179,-522 -482,-522zm-6 151c190,0 287,183 287,377 0,215 -103,384 -287,384 -182,0 -289,-166 -289,-377 0,-212 100,-384 289,-384zm605 847c58,35 172,65 283,65 267,0 394,-143 394,-310 0,-148 -87,-238 -267,-305 -139,-53 -200,-90 -200,-169 0,-61 51,-124 172,-124 97,0 170,29 208,49l45 -149c-54,-29 -136,-54 -248,-54 -227,0 -370,127 -370,296 0,148 110,238 283,299 131,48 184,93 184,171 0,84 -68,141 -189,141 -97,0 -191,-31 -251,-66l-44 156zm1048 48l190 0 0 -871 299 0 0 -157 -786 0 0 157 297 0 0 871zm611 -1028l0 1028 190 0 0 -1028 -190 0zm1123 851c-51,22 -131,37 -207,37 -230,0 -363,-143 -363,-371 0,-247 153,-378 365,-378 85,0 154,18 204,39l40 -149c-39,-20 -127,-46 -252,-46 -318,0 -557,205 -557,543 0,315 200,519 531,519 127,0 225,-24 270,-46l-31 -148zm147 129c57,35 171,65 283,65 267,0 394,-143 394,-310 0,-148 -87,-238 -268,-305 -139,-53 -199,-90 -199,-169 0,-61 51,-124 172,-124 97,0 169,29 208,49l45 -149c-54,-29 -136,-54 -249,-54 -227,0 -369,127 -369,296 0,148 110,238 283,299 131,48 183,93 183,171 0,84 -67,141 -188,141 -97,0 -191,-31 -252,-66l-43 156z"/>
  <g id="_2465449520592">
   <path class="fil2" d="M2468 7886l0 239 -137 0 0 -680 259 0c39,0 74,5 104,17 31,11 57,26 79,47 21,20 38,44 49,71 11,28 17,58 17,90 0,33 -6,63 -17,89 -11,27 -28,49 -49,68 -22,19 -48,33 -79,43 -30,10 -65,16 -104,16l-122 0zm0 -114l122 0c19,0 36,-2 50,-8 14,-5 26,-11 34,-20 9,-9 16,-20 20,-32 4,-13 7,-26 7,-41 0,-15 -3,-29 -7,-42 -4,-14 -11,-26 -20,-36 -8,-11 -20,-19 -34,-25 -14,-6 -31,-10 -50,-10l-122 0 0 214zm429 96c0,-37 6,-71 16,-103 10,-31 25,-58 45,-81 20,-23 44,-41 73,-54 29,-13 62,-20 99,-20 37,0 71,7 100,20 29,13 53,31 73,54 20,23 35,50 45,81 11,32 16,66 16,103l0 10c0,37 -5,71 -16,102 -10,32 -25,59 -45,81 -20,23 -44,41 -73,54 -29,13 -62,20 -99,20 -38,0 -71,-7 -100,-20 -29,-13 -53,-31 -73,-54 -20,-22 -35,-49 -45,-81 -10,-31 -16,-65 -16,-102l0 -10zm132 10c0,20 2,39 5,58 4,18 10,33 18,47 8,13 18,23 31,31 13,8 29,12 48,12 18,0 34,-4 47,-12 12,-8 23,-18 31,-31 8,-14 14,-29 18,-47 4,-19 5,-38 5,-58l0 -10c0,-20 -1,-39 -5,-57 -4,-18 -10,-34 -18,-47 -8,-14 -19,-24 -32,-32 -13,-8 -28,-12 -47,-12 -18,0 -34,4 -47,12 -13,8 -23,18 -31,32 -8,13 -14,29 -18,47 -3,18 -5,37 -5,57l0 10zm844 64l65 -322 127 0 -126 505 -110 0 -93 -318 -93 318 -110 0 -126 -505 127 0 65 321 90 -321 95 0 89 322zm484 193c-38,0 -73,-7 -103,-20 -30,-12 -56,-30 -77,-52 -21,-22 -37,-48 -48,-78 -11,-29 -17,-61 -17,-95l0 -19c0,-38 6,-73 17,-105 10,-32 26,-59 46,-82 19,-23 44,-41 72,-54 28,-13 60,-20 95,-20 36,0 67,6 94,18 27,12 50,29 68,51 18,21 32,47 42,78 9,31 13,65 13,102l0 57 -313 0c2,17 6,32 13,45 6,14 15,25 25,35 10,9 22,17 36,22 13,5 28,8 46,8 23,0 46,-5 66,-14 20,-9 38,-23 52,-43l65 74c-8,12 -18,23 -30,34 -11,11 -25,21 -41,29 -17,9 -35,16 -55,21 -20,5 -42,8 -66,8zm-15 -415c-14,0 -27,2 -38,7 -10,6 -20,13 -28,22 -7,9 -14,20 -18,33 -5,13 -9,27 -11,42l183 0 0 -10c0,-14 -2,-26 -6,-38 -3,-11 -8,-21 -15,-30 -8,-8 -17,-15 -28,-19 -11,-5 -24,-7 -39,-7zm569 26c-7,-1 -15,-1 -24,-2 -9,-1 -16,-1 -23,-1 -26,0 -47,4 -63,13 -16,9 -28,22 -35,38l0 331 -132 0 0 -505 124 0 4 60c13,-22 28,-39 46,-51 18,-13 39,-19 64,-19 7,0 14,1 22,2 7,1 14,3 19,4l-2 130zm281 389c-38,0 -72,-7 -102,-20 -31,-12 -56,-30 -77,-52 -21,-22 -38,-48 -49,-78 -11,-29 -16,-61 -16,-95l0 -19c0,-38 5,-73 16,-105 11,-32 26,-59 46,-82 20,-23 44,-41 72,-54 29,-13 60,-20 96,-20 35,0 66,6 93,18 27,12 50,29 68,51 19,21 33,47 42,78 9,31 14,65 14,102l0 57 -314 0c2,17 7,32 13,45 7,14 15,25 25,35 10,9 22,17 36,22 14,5 29,8 46,8 24,0 46,-5 66,-14 21,-9 38,-23 53,-43l64 74c-8,12 -17,23 -29,34 -12,11 -26,21 -42,29 -16,9 -34,16 -55,21 -20,5 -42,8 -66,8zm-15 -415c-14,0 -27,2 -37,7 -11,6 -20,13 -28,22 -8,9 -14,20 -19,33 -5,13 -8,27 -11,42l184 0 0 -10c-1,-14 -3,-26 -6,-38 -4,-11 -9,-21 -16,-30 -7,-8 -16,-15 -27,-19 -11,-5 -25,-7 -40,-7zm272 149c0,-39 4,-74 13,-106 9,-31 21,-59 38,-81 16,-23 36,-41 60,-53 24,-13 51,-19 82,-19 25,0 48,5 67,15 20,9 37,23 52,40l0 -258 132 0 0 718 -119 0 -6 -53c-16,19 -34,35 -54,46 -21,11 -45,17 -73,17 -30,0 -57,-7 -81,-20 -24,-13 -44,-31 -60,-53 -17,-23 -29,-50 -38,-81 -9,-32 -13,-66 -13,-102l0 -10zm132 10c0,20 1,39 4,57 4,18 9,33 17,47 7,13 17,23 29,31 12,7 26,11 44,11 21,0 39,-4 53,-14 14,-9 25,-22 33,-39l0 -199c-8,-17 -19,-30 -33,-39 -14,-9 -32,-14 -52,-14 -18,0 -32,4 -45,12 -12,7 -21,18 -29,31 -7,13 -13,29 -16,47 -4,18 -5,38 -5,59l0 10zm1090 -2c0,38 -4,73 -12,104 -8,32 -20,59 -36,82 -16,22 -36,40 -60,53 -24,12 -52,19 -84,19 -28,0 -53,-6 -74,-17 -21,-11 -39,-27 -54,-46l-6 53 -118 0 0 -718 132 0 0 258c14,-17 31,-31 51,-40 19,-10 42,-15 68,-15 32,0 61,7 85,19 24,13 44,31 60,54 16,22 28,50 36,81 8,32 12,66 12,103l0 10zm-132 -10c0,-20 -1,-39 -4,-56 -3,-18 -8,-34 -15,-48 -7,-13 -16,-23 -29,-31 -12,-8 -27,-12 -46,-12 -22,0 -40,5 -54,14 -14,9 -25,22 -32,39l0 199c7,17 18,30 32,40 14,9 32,14 55,14 19,0 34,-4 46,-11 12,-8 21,-18 28,-31 7,-13 12,-29 15,-47 3,-18 4,-38 4,-60l0 -10zm392 67l91 -314 141 0 -197 581c-5,13 -11,27 -18,42 -7,15 -16,29 -29,42 -12,12 -27,23 -45,32 -18,8 -40,12 -66,12 -6,0 -11,0 -16,0 -5,-1 -10,-1 -14,-2 -5,0 -9,-1 -14,-2 -4,-1 -9,-3 -14,-4l0 -103c3,0 7,0 10,0 4,1 7,1 10,1 13,0 24,-1 34,-3 9,-2 17,-6 24,-10 6,-5 12,-10 16,-17 5,-7 9,-15 12,-24l14 -38 -172 -507 141 0 92 314zm291 125c0,-10 1,-20 5,-29 3,-9 9,-16 15,-23 7,-6 14,-11 23,-15 10,-4 20,-5 31,-5 11,0 21,1 31,5 9,4 17,9 23,15 7,7 12,14 15,23 4,9 6,19 6,29 0,10 -2,20 -6,28 -3,9 -8,17 -15,23 -6,7 -14,11 -23,15 -10,4 -20,5 -31,5 -11,0 -21,-1 -31,-5 -9,-4 -16,-8 -23,-15 -6,-6 -12,-14 -15,-23 -4,-8 -5,-18 -5,-28zm0 -383c0,-10 1,-20 5,-29 3,-9 9,-16 15,-23 7,-6 14,-11 23,-15 10,-3 20,-5 31,-5 11,0 21,2 31,5 9,4 17,9 23,15 7,7 12,14 15,23 4,9 6,19 6,29 0,10 -2,20 -6,29 -3,8 -8,16 -15,22 -6,7 -14,12 -23,15 -10,4 -20,6 -31,6 -11,0 -21,-2 -31,-6 -9,-3 -16,-8 -23,-15 -6,-6 -12,-14 -15,-22 -4,-9 -5,-19 -5,-29z"/>
   <path class="fil2" d="M8233 7904c-3,33 -11,64 -23,92 -12,28 -29,53 -50,73 -22,21 -48,37 -79,48 -32,12 -68,18 -108,18 -41,0 -78,-8 -111,-23 -33,-15 -61,-37 -84,-65 -23,-27 -41,-61 -53,-101 -13,-39 -19,-84 -19,-133l0 -55c0,-49 6,-93 19,-133 13,-40 31,-74 55,-102 24,-28 52,-49 86,-65 33,-15 71,-23 112,-23 40,0 75,6 105,18 30,12 56,28 77,49 21,20 38,45 50,74 12,28 19,60 23,94l-115 0c-2,-22 -7,-41 -12,-58 -6,-17 -15,-32 -26,-44 -11,-12 -24,-21 -41,-27 -17,-7 -37,-10 -61,-10 -26,0 -49,5 -68,16 -20,10 -36,24 -49,43 -13,20 -23,43 -30,71 -6,28 -9,60 -9,96l0 56c0,34 3,65 8,93 6,27 15,51 27,71 12,20 28,35 47,46 19,11 42,16 69,16 25,0 46,-3 63,-9 17,-6 31,-14 42,-26 12,-11 20,-25 27,-42 6,-17 10,-36 13,-58l115 0zm201 -229c17,-20 37,-36 60,-48 23,-11 49,-17 77,-17 24,0 46,4 66,11 19,6 36,17 50,32 14,16 25,35 32,59 8,25 12,54 12,88l0 325 -111 0 0 -326c0,-35 -7,-60 -22,-74 -15,-14 -36,-22 -65,-22 -23,0 -43,6 -59,17 -17,10 -30,25 -40,44l0 361 -111 0 0 -718 111 0 0 268zm626 460c-37,0 -70,-7 -99,-19 -29,-13 -54,-30 -74,-51 -20,-22 -36,-48 -47,-78 -11,-30 -16,-62 -16,-97l0 -19c0,-39 5,-75 17,-108 12,-32 27,-59 47,-82 20,-22 44,-40 71,-52 27,-13 57,-19 88,-19 36,0 67,6 93,19 26,12 48,29 66,51 17,23 30,49 38,79 9,31 13,64 13,101l0 48 -322 0c2,20 6,38 12,55 7,16 16,30 27,42 11,12 24,22 40,29 15,7 32,10 52,10 27,0 51,-6 71,-17 20,-11 38,-26 53,-46l59 58c-8,12 -17,24 -29,36 -12,11 -25,21 -41,30 -16,9 -33,16 -53,21 -20,6 -42,9 -66,9zm-14 -434c-30,0 -55,11 -73,33 -19,22 -31,52 -36,91l211 0 0 -8c-1,-15 -3,-30 -7,-43 -4,-14 -10,-27 -18,-37 -8,-11 -18,-20 -31,-26 -12,-6 -28,-10 -46,-10zm573 287c0,-8 -1,-16 -4,-23 -2,-7 -8,-13 -15,-19 -8,-7 -18,-12 -32,-17 -14,-6 -32,-11 -54,-15 -27,-6 -51,-13 -72,-21 -22,-9 -41,-19 -56,-31 -16,-12 -28,-26 -36,-42 -9,-17 -13,-35 -13,-57 0,-20 4,-40 13,-58 9,-19 21,-35 38,-49 16,-14 37,-25 60,-33 24,-9 50,-13 79,-13 31,0 58,4 83,13 24,8 45,19 62,34 17,14 30,31 39,51 9,20 13,41 13,63l-111 0c0,-9 -1,-19 -5,-28 -4,-9 -9,-17 -16,-24 -8,-8 -17,-13 -27,-17 -11,-5 -24,-7 -38,-7 -14,0 -26,2 -36,6 -11,3 -19,8 -26,14 -7,5 -12,12 -15,20 -4,7 -5,15 -5,24 0,8 1,16 4,22 3,7 9,13 16,18 8,5 19,10 32,15 13,4 29,9 49,13 28,6 54,14 76,22 23,8 42,19 58,31 15,12 27,26 36,43 8,16 12,36 12,59 0,22 -5,43 -14,61 -10,19 -23,35 -41,49 -17,13 -38,24 -63,31 -24,8 -52,12 -82,12 -33,0 -63,-5 -89,-15 -26,-10 -48,-23 -65,-39 -18,-16 -31,-34 -40,-54 -9,-20 -14,-40 -14,-61l108 0c1,16 4,29 10,39 6,11 14,19 24,26 9,6 20,11 31,14 12,3 24,5 37,5 29,0 51,-6 66,-18 15,-11 23,-26 23,-44zm499 137c-3,-6 -5,-13 -7,-21 -2,-8 -4,-17 -5,-26 -8,8 -16,15 -25,22 -9,7 -18,13 -29,18 -11,5 -23,9 -35,12 -13,3 -26,5 -41,5 -24,0 -47,-4 -67,-12 -21,-7 -39,-18 -53,-32 -15,-13 -27,-29 -35,-48 -8,-18 -12,-38 -12,-59 0,-27 4,-51 14,-72 11,-21 25,-39 44,-53 19,-14 43,-24 70,-32 28,-7 60,-11 95,-11l70 0 0 -33c0,-26 -7,-47 -21,-63 -15,-15 -36,-23 -65,-23 -13,0 -25,2 -36,5 -11,4 -20,9 -27,15 -7,6 -13,13 -17,21 -4,9 -6,18 -6,27l-111 0c0,-20 5,-39 14,-57 10,-19 23,-35 41,-50 18,-14 39,-26 64,-35 25,-8 53,-13 84,-13 28,0 53,4 76,11 24,8 44,19 61,33 17,14 30,32 40,54 9,22 14,47 14,76l0 225c0,45 6,81 18,108l0 8 -113 0zm-121 -82c13,0 25,-1 36,-5 11,-3 21,-8 30,-13 9,-6 16,-12 23,-20 7,-7 12,-14 16,-22l0 -95 -59 0c-42,0 -72,7 -93,22 -21,14 -31,35 -31,62 0,10 2,20 5,29 3,8 8,16 15,22 7,7 15,12 24,15 10,4 21,5 34,5zm574 82l0 -680 196 0c45,0 85,7 121,23 37,15 69,37 95,65 26,28 46,62 61,102 14,40 22,84 22,134l0 33c0,50 -7,94 -22,134 -14,39 -35,73 -61,101 -27,28 -59,50 -96,65 -38,16 -79,23 -125,23l-191 0zm116 -585l0 491 75 0c31,0 58,-5 82,-16 24,-10 43,-25 59,-45 16,-20 27,-43 35,-72 8,-28 12,-60 12,-96l0 -34c0,-74 -15,-131 -47,-169 -31,-39 -76,-59 -136,-59l-80 0zm700 595c-37,0 -70,-7 -99,-19 -29,-13 -53,-30 -74,-51 -20,-22 -36,-48 -47,-78 -11,-30 -16,-62 -16,-97l0 -19c0,-39 6,-75 17,-108 12,-32 28,-59 48,-82 20,-22 43,-40 70,-52 28,-13 57,-19 88,-19 36,0 67,6 93,19 27,12 49,29 66,51 17,23 30,49 39,79 8,31 12,64 12,101l0 48 -322 0c2,20 6,38 13,55 6,16 15,30 26,42 11,12 25,22 40,29 15,7 33,10 52,10 28,0 51,-6 71,-17 21,-11 38,-26 53,-46l60 58c-8,12 -18,24 -30,36 -11,11 -25,21 -41,30 -15,9 -33,16 -53,21 -19,6 -42,9 -66,9zm-13 -434c-31,0 -55,11 -74,33 -19,22 -31,52 -36,91l211 0 0 -8c-1,-15 -3,-30 -7,-43 -4,-14 -10,-27 -17,-37 -8,-11 -19,-20 -31,-26 -13,-6 -28,-10 -46,-10zm399 -81l3 58c17,-22 38,-38 62,-50 25,-12 52,-18 81,-18 24,0 46,4 65,10 19,7 36,18 49,33 14,15 24,34 32,58 7,24 11,53 11,88l0 326 -111 0 0 -327c0,-18 -2,-32 -5,-45 -4,-12 -10,-21 -17,-29 -7,-7 -16,-13 -27,-16 -11,-3 -23,-5 -37,-5 -23,0 -43,6 -59,17 -17,11 -31,26 -41,45l0 360 -110 0 0 -505 104 0zm554 -123l0 123 87 0 0 84 -87 0 0 282c0,12 2,21 4,28 2,7 6,13 11,17 4,4 9,6 16,8 6,1 13,2 20,2 8,0 15,-1 22,-2 8,-1 13,-2 17,-3l0 88c-9,2 -19,5 -31,7 -11,2 -25,4 -42,4 -18,0 -35,-3 -51,-8 -15,-5 -29,-13 -40,-24 -11,-11 -20,-26 -27,-44 -6,-18 -9,-40 -9,-66l0 -289 -81 0 0 -84 81 0 0 -123 110 0zm466 628c-3,-6 -6,-13 -8,-21 -1,-8 -3,-17 -5,-26 -7,8 -15,15 -24,22 -9,7 -19,13 -30,18 -10,5 -22,9 -35,12 -12,3 -26,5 -40,5 -25,0 -47,-4 -68,-12 -21,-7 -38,-18 -53,-32 -15,-13 -26,-29 -35,-48 -8,-18 -12,-38 -12,-59 0,-27 5,-51 15,-72 10,-21 25,-39 44,-53 19,-14 42,-24 70,-32 28,-7 60,-11 95,-11l70 0 0 -33c0,-26 -8,-47 -22,-63 -14,-15 -36,-23 -65,-23 -13,0 -25,2 -35,5 -11,4 -20,9 -27,15 -8,6 -14,13 -18,21 -4,9 -6,18 -6,27l-111 0c0,-20 5,-39 15,-57 9,-19 23,-35 41,-50 17,-14 38,-26 64,-35 25,-8 52,-13 84,-13 27,0 53,4 76,11 23,8 44,19 61,33 17,14 30,32 39,54 10,22 14,47 14,76l0 225c0,45 6,81 19,108l0 8 -113 0zm-121 -82c12,0 24,-1 35,-5 11,-3 21,-8 30,-13 9,-6 17,-12 24,-20 6,-7 12,-14 16,-22l0 -95 -60 0c-41,0 -72,7 -92,22 -21,14 -31,35 -31,62 0,10 1,20 5,29 3,8 8,16 15,22 6,7 15,12 24,15 10,4 21,5 34,5zm449 82l-111 0 0 -718 111 0 0 718zm869 -221c-3,33 -11,64 -23,92 -12,28 -29,53 -50,73 -22,21 -48,37 -79,48 -32,12 -68,18 -108,18 -41,0 -78,-8 -111,-23 -33,-15 -60,-37 -84,-65 -23,-27 -41,-61 -53,-101 -13,-39 -19,-84 -19,-133l0 -55c0,-49 6,-93 19,-133 13,-40 31,-74 55,-102 24,-28 52,-49 86,-65 33,-15 71,-23 112,-23 40,0 75,6 105,18 30,12 56,28 77,49 21,20 38,45 50,74 12,28 19,60 23,94l-115 0c-2,-22 -6,-41 -12,-58 -6,-17 -15,-32 -26,-44 -11,-12 -24,-21 -41,-27 -17,-7 -37,-10 -61,-10 -26,0 -49,5 -68,16 -20,10 -36,24 -49,43 -13,20 -23,43 -29,71 -7,28 -10,60 -10,96l0 56c0,34 3,65 8,93 6,27 15,51 27,71 12,20 28,35 47,46 19,11 42,16 69,16 25,0 46,-3 63,-9 17,-6 31,-14 42,-26 12,-11 20,-25 27,-42 6,-17 10,-36 13,-58l115 0zm386 221c-3,-6 -5,-13 -7,-21 -2,-8 -4,-17 -5,-26 -8,8 -16,15 -25,22 -9,7 -19,13 -29,18 -11,5 -23,9 -35,12 -13,3 -26,5 -41,5 -24,0 -47,-4 -68,-12 -20,-7 -38,-18 -53,-32 -14,-13 -26,-29 -34,-48 -8,-18 -13,-38 -13,-59 0,-27 5,-51 15,-72 10,-21 25,-39 44,-53 19,-14 43,-24 70,-32 28,-7 60,-11 95,-11l70 0 0 -33c0,-26 -7,-47 -21,-63 -15,-15 -36,-23 -66,-23 -13,0 -24,2 -35,5 -11,4 -20,9 -27,15 -8,6 -13,13 -17,21 -5,9 -7,18 -7,27l-110 0c0,-20 5,-39 14,-57 10,-19 23,-35 41,-50 17,-14 39,-26 64,-35 25,-8 53,-13 84,-13 27,0 53,4 76,11 24,8 44,19 61,33 17,14 30,32 39,54 10,22 15,47 15,76l0 225c0,45 6,81 18,108l0 8 -113 0zm-121 -82c13,0 24,-1 36,-5 11,-3 21,-8 30,-13 9,-6 16,-12 23,-20 7,-7 12,-14 16,-22l0 -95 -60 0c-41,0 -71,7 -92,22 -21,14 -31,35 -31,62 0,10 2,20 5,29 3,8 8,16 15,22 7,7 15,12 24,15 10,4 21,5 34,5zm589 -320c-7,-1 -14,-2 -22,-2 -7,-1 -15,-1 -23,-1 -26,0 -48,5 -65,16 -17,10 -29,25 -37,43l0 346 -111 0 0 -505 106 0 3 56c12,-20 27,-36 46,-48 18,-12 40,-18 65,-18 6,0 13,1 21,2 8,2 14,3 18,5l-1 106zm279 412c-37,0 -70,-7 -99,-19 -29,-13 -54,-30 -74,-51 -20,-22 -36,-48 -47,-78 -11,-30 -16,-62 -16,-97l0 -19c0,-39 5,-75 17,-108 12,-32 27,-59 47,-82 20,-22 44,-40 71,-52 27,-13 57,-19 88,-19 36,0 67,6 93,19 26,12 48,29 66,51 17,23 30,49 38,79 9,31 13,64 13,101l0 48 -322 0c2,20 6,38 12,55 7,16 16,30 27,42 11,12 24,22 40,29 15,7 32,10 52,10 27,0 51,-6 71,-17 20,-11 38,-26 53,-46l59 58c-8,12 -17,24 -29,36 -12,11 -25,21 -41,30 -16,9 -33,16 -53,21 -20,6 -42,9 -66,9zm-14 -434c-30,0 -55,11 -73,33 -19,22 -31,52 -36,91l211 0 0 -8c-1,-15 -3,-30 -7,-43 -4,-14 -10,-27 -18,-37 -8,-11 -18,-20 -31,-26 -12,-6 -28,-10 -46,-10z"/>
  </g>
  <polygon class="fil2" points="16561,4900 16642,4900 16728,4900 16903,4900 17862,4900 17924,4900 17924,4962 17924,7853 17924,7915 17862,7915 16192,7915 15738,7915 15528,7915 15528,7853 15528,7791 15543,7791 15738,7791 16192,7791 17800,7791 17800,5024 16903,5024 16728,5024 16642,5024 16561,5024 16561,5052 16439,5053 16265,5215 15955,5215 15955,5123 15789,5123 15789,5047 15955,5047 15955,4883 15789,4883 15789,4807 15955,4807 15955,4730 16263,4730 16439,4880 16561,4880 "/>
  <path class="fil0" d="M3553 4388c-111,9 -281,72 -217,-198 20,-85 58,-269 86,-328 230,-55 131,73 131,526zm150 75c-130,-11 -74,-101 -74,-244 -1,-140 18,-198 18,-338 4,0 169,-52 169,94 0,70 -57,139 -82,218 -31,97 -31,149 -31,270zm-1144 -357c-173,41 -208,89 -375,0 0,-76 21,-353 66,-384 61,-43 346,-42 346,103 0,126 -35,174 -37,281zm638 188c-167,0 -207,-27 -169,-244 27,-156 12,-225 225,-225 45,0 55,30 94,56 -27,116 -75,413 -150,413zm-394 -19c-265,0 -189,-399 -69,-463 85,-46 189,-31 236,53 19,34 8,410 -167,410zm-1257 -1238c104,28 141,148 157,276 34,278 -91,140 204,207 98,22 244,83 257,175 11,72 -48,309 -55,393 -204,17 -281,92 -258,-300 4,-74 33,-76 -99,-76 0,132 -113,488 263,488 129,0 46,-45 158,10 190,93 228,22 386,9 106,158 233,202 394,94 267,178 175,10 334,133 99,77 179,56 266,36 101,150 237,111 245,-94 11,-278 166,-311 106,-462 -92,-234 -216,-131 -290,-145 -46,-8 -60,-50 -117,-50 -51,0 -61,38 -112,38 -21,0 -175,-123 -338,18 -188,-125 -161,-110 -394,-56 -50,-187 -389,-112 -451,-112 -25,-97 -158,-152 -236,-214 -203,-161 -136,-496 -56,-698 37,-67 145,-228 161,-289 -167,112 -493,479 -525,619z"/>
 </g>
</svg>
